<?xml version="1.0" standalone="no"?>
<!DOCTYPE svg PUBLIC "-//W3C//DTD SVG 20010904//EN"
 "http://www.w3.org/TR/2001/REC-SVG-20010904/DTD/svg10.dtd">
<svg version="1.0" xmlns="http://www.w3.org/2000/svg"
 width="1600.000000pt" height="1600.000000pt" viewBox="0 0 1600.000000 1600.000000"
 preserveAspectRatio="xMidYMid meet">

<g transform="translate(0.000000,1600.000000) scale(0.100000,-0.100000)"
fill="#000000" stroke="none">
<path d="M8010 12598 c-125 -35 -184 -183 -120 -298 91 -163 381 -138 429 37
50 178 -114 317 -309 261z m180 -93 c59 -57 63 -138 9 -199 -70 -80 -212 -47
-239 55 -14 51 1 107 37 141 37 34 49 38 111 34 42 -2 59 -9 82 -31z"/>
<path d="M7550 12583 c-136 -9 -171 -15 -162 -26 12 -14 37 -325 30 -362 -5
-24 -4 -25 53 -25 57 0 69 6 50 26 -5 5 -11 38 -12 74 l-3 65 108 12 c65 7
117 18 133 28 33 22 56 79 47 118 -19 89 -59 103 -244 90z m137 -71 c21 -13
26 -58 8 -75 -17 -17 -48 -24 -137 -30 -55 -3 -56 -3 -62 26 -13 63 -8 75 27
80 59 7 152 7 164 -1z"/>
<path d="M8443 12507 c-3 -90 -32 -298 -44 -313 -6 -8 2 -13 28 -18 80 -13 78
-14 80 70 0 41 4 78 7 81 3 3 29 2 57 -3 51 -9 52 -10 90 -79 21 -39 36 -78
33 -87 -4 -13 0 -18 14 -18 11 0 41 -3 68 -6 47 -7 48 -6 33 12 -13 15 -55 90
-87 155 -1 3 15 11 36 17 53 16 74 43 80 102 4 46 2 54 -24 81 -15 16 -44 34
-64 39 -33 10 -257 40 -290 40 -12 0 -15 -15 -17 -73z m211 -17 c80 -12 96
-22 96 -61 0 -40 -29 -53 -104 -45 -127 14 -121 11 -118 67 4 56 4 56 126 39z"/>
<path d="M7040 12511 c-110 -35 -158 -116 -113 -192 26 -44 60 -53 176 -45 60
4 108 2 117 -3 22 -15 1 -63 -34 -80 -61 -29 -159 -26 -191 6 -20 20 -22 18
-30 -38 l-7 -46 47 -7 c110 -15 181 -1 257 49 75 50 69 157 -12 198 -28 14
-49 17 -105 12 -38 -3 -81 -8 -95 -11 -14 -2 -34 2 -44 9 -26 19 -13 51 28 71
43 20 145 21 172 1 10 -8 22 -15 26 -15 7 0 22 76 16 87 -5 10 -178 14 -208 4z"/>
<path d="M8957 12493 c-3 -16 -9 -37 -13 -47 -6 -15 -4 -18 8 -13 15 5 120
-22 133 -35 7 -7 -72 -287 -86 -304 -8 -10 2 -17 42 -28 29 -9 53 -16 54 -16
1 0 2 12 3 28 1 15 19 86 40 157 l40 130 38 -2 c21 -2 55 -11 75 -21 l37 -19
6 26 c3 14 8 36 12 48 5 18 3 21 -14 16 -20 -5 -337 82 -358 98 -8 6 -13 0
-17 -18z"/>
<path d="M6745 12436 c-11 -8 -91 -37 -177 -67 -139 -47 -156 -55 -144 -68 17
-21 107 -285 113 -334 4 -31 9 -37 22 -32 69 29 326 115 335 113 17 -4 18 7 5
51 -10 33 -14 37 -25 26 -12 -12 -255 -98 -259 -92 -12 16 -31 98 -24 102 27
17 152 53 166 48 16 -6 15 4 -9 66 -8 21 -10 22 -26 9 -24 -21 -152 -62 -162
-52 -8 10 -31 76 -28 80 12 11 242 82 253 78 8 -4 15 -2 15 4 0 10 -29 82 -33
81 -1 0 -11 -6 -22 -13z"/>
<path d="M9410 12363 c0 -29 -111 -353 -121 -353 -24 0 -4 -18 32 -29 23 -7
47 -15 54 -18 9 -3 13 2 13 14 -2 30 103 337 120 350 19 16 18 16 -42 37 -60
20 -56 20 -56 -1z"/>
<path d="M9608 12107 c2 -156 0 -212 -9 -218 -8 -4 2 -14 27 -27 59 -30 85
-36 79 -20 -5 13 114 124 257 240 l58 47 -56 25 c-65 30 -68 31 -61 13 3 -8 2
-18 -1 -23 -12 -16 -190 -174 -196 -174 -3 0 -6 63 -6 140 0 87 4 140 10 140
25 0 5 18 -47 41 l-58 25 3 -209z"/>
<path d="M5941 12110 c-70 -39 -88 -56 -114 -105 -44 -84 -16 -193 66 -259 32
-26 48 -31 106 -34 60 -4 74 -1 128 27 113 56 163 156 129 257 -44 133 -187
185 -315 114z m166 -60 c35 -21 73 -85 73 -124 0 -63 -46 -118 -114 -137 -69
-19 -133 13 -160 81 -20 51 -20 73 1 113 39 77 133 108 200 67z"/>
<path d="M7701 12059 c-922 -66 -1828 -483 -2476 -1138 -55 -56 -103 -101
-107 -101 -9 0 -425 313 -482 362 -38 33 -39 36 -46 120 -4 48 -13 94 -20 103
-7 8 -30 18 -52 21 -34 6 -42 13 -61 50 -11 24 -27 44 -35 44 -8 0 -36 -20
-62 -44 -26 -24 -70 -54 -98 -66 -59 -25 -82 -55 -82 -104 0 -43 46 -86 238
-224 72 -53 132 -100 132 -104 0 -4 -40 -58 -89 -120 l-89 -112 25 -13 c32
-16 252 -189 277 -217 l18 -21 17 21 c9 12 52 67 95 122 44 56 82 102 86 102
5 0 77 -48 99 -66 2 -1 -35 -51 -82 -111 -375 -478 -641 -1056 -756 -1648 -60
-304 -65 -369 -66 -765 0 -399 8 -491 76 -815 84 -407 256 -847 464 -1190 l67
-110 -21 -40 c-34 -63 -77 -111 -206 -222 -126 -110 -155 -143 -155 -181 0
-34 11 -51 140 -222 146 -195 360 -520 360 -549 0 -7 -213 -10 -705 -8 -388 1
-705 -1 -705 -4 0 -5 234 -151 715 -448 94 -57 174 -107 178 -111 7 -6 -226
-154 -670 -427 -57 -34 -131 -81 -165 -103 l-63 -40 905 -1 c498 -1 912 -2
920 -3 12 -1 15 -25 18 -143 l3 -143 2784 0 2784 0 3 142 3 143 889 5 890 5
-290 180 c-159 98 -358 222 -442 275 -85 52 -154 99 -154 105 -1 5 200 133
445 285 245 151 444 276 442 278 -1 1 -318 2 -703 2 -386 0 -703 4 -706 9 -5
7 61 118 179 301 26 41 106 153 177 248 71 94 133 185 138 200 12 44 -11 83
-86 146 -105 88 -232 216 -265 268 l-30 47 62 103 c230 381 406 840 488 1273
126 670 81 1346 -135 1994 -137 412 -368 839 -631 1167 -40 50 -73 96 -73 102
0 6 84 70 188 143 343 242 535 384 580 426 41 39 44 45 39 78 -8 48 -20 61
-86 95 -31 16 -74 47 -96 69 -51 53 -70 52 -97 -3 -18 -38 -26 -44 -60 -49
-59 -8 -66 -18 -74 -119 -6 -86 -8 -91 -41 -122 -58 -52 -54 -54 -155 55 -69
75 -94 96 -97 83 -2 -10 -17 -31 -35 -47 -17 -16 -74 -71 -127 -123 -53 -52
-101 -94 -108 -94 -21 0 -11 -15 59 -85 39 -38 70 -75 70 -81 0 -9 -81 -74
-93 -74 -2 0 -56 51 -119 113 -819 804 -1915 1208 -3057 1126z m674 -165 c858
-82 1655 -461 2290 -1087 l90 -89 -30 -21 c-50 -36 -287 -227 -340 -275 -66
-59 -240 -182 -257 -182 -8 0 -32 19 -53 41 -89 92 -275 244 -415 338 -308
207 -653 356 -1005 435 -135 31 -372 66 -442 66 l-51 0 -7 39 c-9 54 -65 118
-115 131 -90 24 -185 -38 -200 -130 -5 -33 -8 -35 -45 -38 -22 -1 -96 -9 -165
-18 -641 -81 -1217 -354 -1692 -803 -45 -42 -73 -61 -83 -57 -31 11 -152 101
-290 216 -77 63 -179 146 -227 183 -49 38 -88 72 -88 76 0 5 60 66 133 137
652 636 1531 1016 2437 1053 199 8 356 4 555 -15z m2825 -739 c32 -33 50 -58
45 -63 -6 -5 -23 -19 -39 -31 l-30 -22 -48 48 c-26 26 -48 52 -48 57 0 11 50
66 60 66 3 0 30 -25 60 -55z m-125 -105 l48 -49 -24 -20 c-60 -49 -67 -49
-110 -2 -21 23 -39 45 -39 49 0 8 62 72 70 72 3 0 28 -22 55 -50z m-6350 -188
c50 -35 94 -68 98 -72 7 -6 -73 -118 -119 -169 -6 -7 -84 49 -84 60 0 14 87
126 106 137 13 7 11 13 -16 35 -35 30 -47 33 -47 13 0 -18 -93 -136 -107 -136
-12 1 -66 45 -66 54 0 3 9 16 19 28 11 13 38 47 61 76 25 33 45 50 53 45 7 -4
53 -36 102 -71z m3115 -272 c0 -139 -4 -210 -10 -210 -6 0 -54 -5 -107 -11
-200 -22 -448 -92 -653 -184 -58 -26 -109 -51 -115 -55 -5 -4 -37 -22 -70 -40
-97 -53 -295 -195 -379 -272 -18 -17 -21 -17 -45 -1 -56 36 -297 206 -310 219
-12 11 -7 20 35 59 262 247 612 455 964 574 203 69 468 121 653 129 l37 2 0
-210z m490 195 c453 -53 894 -234 1275 -520 61 -46 143 -114 184 -151 l73 -69
-73 -51 c-41 -28 -120 -83 -177 -123 l-103 -73 -57 49 c-233 200 -493 343
-805 442 -106 34 -312 76 -419 86 l-68 7 0 209 0 209 23 0 c12 0 78 -7 147
-15z m-3050 -321 c80 -58 174 -119 210 -136 61 -30 248 -156 271 -184 9 -11 0
-27 -38 -71 -259 -306 -448 -650 -570 -1038 -65 -206 -102 -396 -128 -662 l-7
-61 -42 -11 c-101 -25 -151 -121 -112 -214 18 -45 70 -86 116 -93 l38 -6 6
-67 c42 -431 141 -780 322 -1129 41 -79 74 -145 74 -147 0 -2 -17 -14 -37 -26
-132 -79 -419 -279 -525 -366 -57 -46 -79 -59 -86 -50 -23 27 -121 210 -179
332 -185 393 -298 795 -345 1236 -16 157 -16 606 0 759 15 134 55 367 83 489
41 175 100 357 189 581 58 148 204 424 316 597 105 162 268 373 288 373 6 0
76 -48 156 -106z m5660 34 c87 -105 236 -323 320 -468 276 -478 447 -1026 491
-1575 15 -189 7 -615 -16 -780 -67 -500 -225 -970 -470 -1403 -47 -82 -47 -82
-69 -65 -126 100 -302 226 -446 322 l-175 116 81 160 c119 237 210 496 259
740 26 128 55 345 55 406 0 35 2 37 40 42 79 10 130 72 130 157 0 75 -56 142
-128 155 l-39 6 -12 132 c-31 350 -144 735 -312 1064 -100 194 -274 452 -399
589 -27 30 -30 38 -19 49 39 36 241 173 265 179 34 9 122 67 259 170 55 42
106 76 112 76 7 0 40 -33 73 -72z m-3100 -793 l5 -590 23 -33 c13 -18 37 -39
53 -47 l29 -16 0 -119 c0 -66 -3 -120 -7 -120 -7 1 -130 85 -415 286 -38 26
-68 52 -68 59 0 6 11 26 25 45 45 61 29 84 -75 114 -30 8 -93 34 -140 57 -72
35 -92 40 -130 36 -45 -5 -46 -4 -310 180 -146 102 -267 187 -269 189 -14 12
157 148 294 234 115 72 312 165 440 208 174 59 427 112 510 108 l30 -1 5 -590z
m487 575 c230 -39 391 -88 584 -178 163 -75 361 -203 487 -313 32 -28 39 -39
29 -46 -23 -19 -385 -272 -459 -322 -66 -44 -79 -49 -114 -44 -32 4 -55 -2
-110 -28 -38 -17 -109 -47 -158 -64 -49 -18 -93 -40 -98 -49 -7 -13 -2 -29 21
-64 29 -44 29 -48 13 -64 -25 -23 -447 -317 -462 -320 -9 -2 -11 26 -10 112
l1 115 36 29 c75 62 73 42 73 684 l0 572 24 0 c13 0 77 -9 143 -20z m-2152
-436 c72 -52 145 -105 162 -117 18 -12 33 -26 33 -32 0 -5 -16 -28 -36 -50
-131 -147 -239 -304 -324 -470 -140 -276 -191 -447 -246 -832 l-5 -33 -207 0
-208 0 8 98 c39 486 256 1016 576 1409 42 52 81 101 87 109 5 8 14 14 20 14 5
0 69 -43 140 -96z m3896 -34 c330 -413 531 -911 575 -1417 l7 -83 -212 0 -211
0 0 28 c0 90 -68 396 -123 557 -44 126 -155 361 -192 405 -7 8 -20 30 -29 48
-21 41 -166 232 -220 290 -23 24 -42 47 -44 51 -1 5 57 52 130 106 73 54 147
109 163 121 17 13 35 23 41 24 7 0 58 -59 115 -130z m-3518 -241 c53 -39 97
-74 97 -78 0 -5 -24 -11 -54 -14 -80 -8 -152 -50 -169 -98 -10 -31 31 -76 209
-230 142 -122 601 -493 852 -688 23 -18 40 -37 37 -42 -6 -9 -358 -247 -378
-254 -8 -4 -18 10 -27 36 -9 26 -30 54 -53 73 l-39 31 -592 3 -593 3 18 133
c54 409 231 801 505 1117 38 43 74 79 80 79 5 0 54 -32 107 -71z m3085 -19
c220 -254 385 -583 462 -920 17 -75 49 -274 50 -312 0 -5 -255 -8 -567 -8
-343 0 -582 -4 -604 -10 -44 -12 -98 -65 -106 -102 -3 -16 -9 -31 -14 -34 -5
-2 -97 55 -206 127 -190 127 -196 132 -176 148 11 9 60 47 109 85 135 106 368
290 380 301 6 5 53 44 104 85 321 259 500 422 500 457 0 43 -80 97 -161 108
-72 11 -76 13 -48 35 91 72 176 129 189 127 8 -1 47 -40 88 -87z m-1688 -1894
l0 -373 -32 -23 c-18 -12 -42 -34 -53 -49 -19 -25 -20 -44 -23 -620 l-2 -593
-83 7 c-162 13 -429 81 -582 147 -91 39 -259 124 -293 147 -15 10 -47 31 -72
47 -51 32 -155 110 -184 136 -11 10 -24 18 -29 18 -21 0 16 449 44 537 19 60
33 61 94 4 35 -31 72 -55 98 -62 89 -24 202 17 281 101 66 71 93 135 106 255
18 156 62 214 290 378 14 9 115 84 225 166 110 82 203 150 208 150 4 1 7 -167
7 -373z m395 159 c273 -200 369 -284 400 -350 10 -22 22 -78 26 -125 14 -167
79 -269 211 -336 106 -54 200 -40 285 42 25 24 49 44 54 44 30 0 58 -147 79
-423 13 -170 21 -148 -85 -227 -33 -25 -62 -47 -65 -51 -12 -13 -155 -101
-241 -147 -228 -123 -531 -216 -771 -237 l-78 -7 0 573 c0 543 -1 576 -19 616
-11 24 -35 52 -55 65 l-35 23 -3 373 c-2 206 -1 375 1 377 2 3 11 -1 20 -8 10
-7 134 -97 276 -202z m-2581 143 c36 -261 61 -375 119 -544 35 -100 111 -279
130 -302 7 -9 -17 -44 -89 -129 -97 -114 -183 -187 -212 -181 -8 2 -43 57 -77
123 -110 215 -195 455 -244 695 -28 132 -54 354 -43 365 3 3 97 5 208 5 l203
0 5 -32z m1096 25 c0 -5 -23 -21 -50 -38 -122 -73 -184 -121 -190 -144 -4 -18
-45 -52 -140 -118 -74 -51 -155 -110 -179 -131 l-44 -37 13 -53 c12 -51 11
-54 -14 -90 -14 -20 -42 -55 -62 -77 -20 -22 -54 -60 -76 -84 -23 -27 -42 -41
-48 -35 -25 25 -122 280 -158 414 -33 122 -75 384 -64 395 9 8 1012 6 1012 -2z
m3286 -30 c-3 -21 -10 -76 -16 -123 -15 -115 -62 -302 -109 -430 -44 -117 -88
-217 -100 -225 -8 -4 -101 94 -175 184 -26 33 -27 38 -21 101 l7 66 -39 30
c-53 41 -231 165 -275 192 -22 14 -41 35 -47 55 -9 26 -32 45 -121 101 -61 37
-113 72 -116 77 -3 5 208 9 506 9 l512 0 -6 -37z m499 -45 c-18 -214 -70 -449
-147 -666 -48 -134 -191 -430 -212 -438 -22 -9 -73 26 -142 98 -80 83 -164
183 -164 195 0 6 22 57 49 114 98 208 170 468 197 717 l7 62 210 0 210 0 -8
-82z m-3488 -554 c22 -22 24 -30 18 -72 -15 -107 -106 -221 -204 -256 -141
-50 -258 27 -206 137 16 34 58 63 76 51 5 -3 24 -29 43 -58 39 -61 79 -83 123
-69 39 13 35 36 -9 46 -44 10 -88 57 -88 93 0 57 52 113 129 140 56 20 89 17
118 -12z m1818 2 c28 -13 63 -38 78 -55 55 -66 24 -151 -59 -167 -19 -3 -36
-9 -38 -13 -9 -15 12 -32 46 -37 29 -5 41 -1 71 26 21 18 37 38 37 45 0 7 9
24 21 39 25 31 51 28 87 -10 24 -28 29 -77 11 -118 -27 -57 -137 -73 -224 -32
-100 47 -185 167 -185 260 0 85 57 108 155 62z m-2722 -364 c28 -29 54 -118
43 -147 -5 -14 -21 2 -71 71 -35 49 -65 92 -65 97 0 4 15 7 33 7 23 0 41 -8
60 -28z m3577 21 c0 -9 -110 -172 -121 -179 -14 -8 -11 83 5 120 8 18 24 41
37 50 23 16 79 22 79 9z m-3695 -105 c26 -40 68 -99 93 -131 l44 -58 -22 -52
c-40 -93 -191 -297 -221 -297 -13 0 -74 69 -156 178 -80 107 -79 92 -15 192
70 108 190 240 218 240 6 0 33 -33 59 -72z m3840 31 c49 -46 133 -153 185
-237 l32 -53 -25 -37 c-47 -72 -187 -242 -199 -242 -30 0 -181 198 -224 295
l-23 53 62 84 c35 45 76 104 92 130 17 27 36 48 43 48 7 0 33 -19 57 -41z
m-3318 -583 c303 -229 727 -397 1098 -433 l80 -8 0 -210 0 -210 -55 3 c-90 6
-317 41 -404 63 -388 98 -714 257 -1021 496 -126 99 -201 169 -192 179 5 5 19
-3 32 -18 32 -38 65 -36 211 8 122 37 173 58 186 78 5 6 5 30 2 54 -4 23 -4
42 0 42 3 0 32 -20 63 -44z m2786 -79 c58 -29 256 -87 295 -87 24 0 42 7 58
25 13 14 29 25 36 25 19 0 -56 -73 -164 -160 -259 -210 -539 -361 -853 -463
-192 -61 -326 -88 -607 -121 l-48 -6 0 215 0 215 38 0 c118 0 402 64 578 130
199 74 443 209 579 320 l40 32 5 -54 c5 -50 7 -54 43 -71z m-3828 -44 c67 -83
107 -147 99 -158 -5 -7 -64 -81 -132 -164 -138 -170 -128 -166 -186 -77 -66
102 -77 126 -71 146 8 24 247 270 263 270 7 0 19 -8 27 -17z m4927 -112 c95
-95 128 -135 128 -153 0 -25 -114 -208 -130 -208 -4 0 -39 39 -76 88 -37 48
-90 114 -118 147 -86 101 -82 90 -48 129 16 19 44 55 61 80 18 25 37 46 44 46
6 0 69 -58 139 -129z m-4780 55 c10 -19 10 -20 -6 -7 -9 8 -22 24 -28 35 -10
19 -10 20 6 7 9 -8 22 -24 28 -35z m4508 31 c0 -2 -10 -12 -22 -23 l-23 -19
19 23 c18 21 26 27 26 19z m-4368 -174 c6 -16 172 -164 248 -223 25 -19 50
-38 55 -43 88 -71 321 -215 475 -292 309 -155 725 -273 1025 -291 127 -8 135
-10 135 -40 0 -35 23 -77 60 -107 86 -73 222 -26 252 87 14 52 10 50 153 61
331 26 740 148 1070 321 228 119 438 268 647 457 l88 80 20 -24 c30 -36 268
-340 359 -459 44 -58 85 -110 91 -117 5 -7 10 -16 10 -21 0 -12 -167 -159
-275 -242 -369 -286 -694 -457 -1195 -631 l-95 -34 -1006 -2 -1006 -3 -132 40
c-518 159 -1046 463 -1429 822 l-52 50 62 81 c151 200 253 332 258 337 3 3 21
25 40 50 59 78 122 150 130 150 5 0 10 -3 12 -7z m-615 -200 c55 -80 93 -147
93 -165 0 -20 -80 -128 -94 -128 -13 0 -122 127 -153 178 -15 24 -19 41 -13
51 12 22 110 121 119 121 5 0 26 -26 48 -57z m5537 -3 c31 -34 56 -67 56 -75
0 -16 -106 -159 -145 -195 l-27 -25 -38 44 c-64 74 -67 85 -40 134 45 81 116
177 130 177 4 0 33 -27 64 -60z m-5666 -390 c33 -36 30 -54 -8 -48 -16 2 -38
28 -76 92 -30 49 -54 93 -54 98 0 8 37 -30 138 -142z m5805 123 c-3 -10 -26
-52 -52 -93 -37 -60 -52 -76 -74 -78 -15 -2 -27 2 -27 8 0 10 148 180 156 180
1 0 0 -8 -3 -17z m-5622 -299 c29 -32 221 -193 304 -255 234 -176 551 -359
820 -473 l60 -25 -350 2 -350 2 -5 148 -5 147 -432 1 c-448 0 -463 2 -418 39
9 7 88 109 176 226 88 118 164 214 168 214 4 0 18 -12 32 -26z m5414 -57 c33
-45 113 -150 177 -234 65 -84 114 -155 109 -157 -4 -3 -201 -5 -437 -5 l-429
0 -3 -151 -3 -150 -347 1 -347 1 50 21 c210 89 543 275 735 411 92 65 294 227
375 301 28 24 52 45 55 45 3 -1 32 -38 65 -83z m-4515 -1131 c0 -122 3 -175
11 -178 7 -2 13 -18 15 -35 3 -25 -1 -32 -19 -37 -34 -9 -75 -7 -82 4 -4 7
-12 7 -25 0 -31 -17 -88 -12 -109 9 -25 25 -35 94 -28 190 5 67 9 79 33 100
23 19 36 22 71 18 32 -3 43 -1 43 9 0 8 -4 14 -10 14 -5 0 -10 18 -10 40 l0
40 55 0 55 0 0 -174z m2468 162 l42 4 0 -71 0 -71 -40 0 c-32 0 -40 4 -40 18
0 23 -19 42 -41 42 -34 0 -49 -39 -49 -130 0 -61 4 -92 16 -108 19 -27 45 -28
68 -3 17 19 20 19 52 4 42 -21 43 -34 3 -67 -37 -32 -68 -40 -120 -33 -85 11
-112 63 -112 213 0 96 3 116 21 146 30 49 80 71 132 58 14 -4 44 -5 68 -2z
m1472 -104 c0 -100 2 -115 14 -104 11 8 13 24 9 59 -5 44 -4 49 18 54 31 8 83
9 103 1 23 -9 22 -74 -1 -81 -10 -2 -26 -15 -36 -28 -17 -24 -17 -26 14 -80
17 -30 35 -58 40 -61 5 -3 9 -21 9 -40 l0 -34 -66 0 -67 0 5 50 c6 57 -10 82
-33 53 -11 -13 -11 -17 -1 -20 7 -3 12 -22 12 -44 l0 -40 -62 3 c-61 3 -63 4
-66 32 -2 16 1 33 7 39 14 14 15 277 1 277 -5 0 -10 18 -10 40 l0 40 55 0 55
0 0 -116z m-5230 36 l0 -70 -39 0 c-37 0 -40 2 -43 33 -2 27 -8 33 -30 35 -28
3 -28 2 -28 -52 l0 -56 35 0 c34 0 35 -1 35 -40 0 -39 -1 -40 -35 -40 -34 0
-35 -1 -35 -40 0 -29 4 -40 15 -40 11 0 15 -11 15 -40 l0 -40 -75 0 -75 0 0
40 c0 22 5 40 10 40 6 0 10 50 10 130 0 80 -4 130 -10 130 -5 0 -10 18 -10 40
l0 40 130 0 130 0 0 -70z m1810 30 c0 -29 -4 -40 -15 -40 -13 0 -15 -19 -13
-132 l3 -133 27 -3 c24 -3 27 0 30 35 3 37 4 38 46 41 l42 3 0 -75 0 -76 -130
0 -130 0 0 40 c0 22 5 40 10 40 6 0 10 50 10 130 0 80 -4 130 -10 130 -5 0
-10 18 -10 40 l0 40 70 0 70 0 0 -40z m2280 -30 l0 -70 -45 0 c-45 0 -45 0
-45 35 0 32 -2 35 -30 35 -29 0 -30 -1 -30 -50 0 -49 1 -50 31 -50 29 0 30 -2
27 -37 -2 -21 -9 -39 -15 -39 -7 -1 -20 -2 -28 -3 -11 -1 -15 -14 -15 -51 0
-49 1 -50 29 -50 27 0 30 3 33 38 3 36 4 37 46 40 l42 3 0 -75 0 -76 -135 0
-135 0 0 39 c0 22 4 41 9 43 15 5 16 251 2 256 -6 2 -11 21 -11 43 l0 39 135
0 135 0 0 -70z m878 43 c39 -24 52 -72 52 -185 0 -150 -30 -192 -148 -204
l-62 -7 0 42 c0 39 1 41 31 41 48 0 88 26 89 58 0 9 -5 10 -19 2 -36 -19 -86
-12 -112 16 -20 22 -24 37 -27 102 -2 63 1 83 17 109 33 52 120 65 179 26z
m-622 -88 c-31 -58 -56 -109 -56 -115 0 -5 11 -10 24 -10 19 0 25 7 32 43 8
38 12 42 39 42 28 0 30 -3 33 -42 3 -35 7 -43 23 -43 15 0 19 -7 19 -35 0 -28
-4 -35 -20 -35 -26 0 -26 -26 1 -33 16 -4 20 -12 17 -39 l-3 -33 -77 -3 -78
-3 0 39 c0 32 4 41 21 45 42 11 6 27 -62 27 l-69 0 0 35 c0 22 21 76 57 150
l58 115 48 0 49 0 -56 -105z m364 66 c0 -38 0 -38 -46 -45 -49 -6 -74 -20 -74
-41 0 -8 14 -11 49 -7 43 4 53 1 74 -20 31 -31 41 -97 26 -167 -14 -65 -49
-91 -122 -91 -42 0 -54 5 -82 33 -27 27 -33 42 -39 98 -4 37 -4 94 0 128 12
107 59 149 167 150 l47 1 0 -39z m1392 28 c11 -6 26 -26 34 -46 25 -59 7 -104
-83 -206 -42 -47 -43 -67 -3 -67 27 0 30 3 30 30 0 28 2 30 40 30 l40 0 0 -70
0 -70 -120 0 -120 0 0 45 c0 57 28 115 87 178 34 36 44 54 41 75 -2 22 -8 27
-28 26 -14 0 -35 -4 -47 -8 -18 -6 -25 -1 -37 23 -9 17 -16 34 -16 40 0 26
141 42 182 20z m218 -154 c0 -140 2 -165 15 -165 11 0 15 -11 15 -40 l0 -40
-80 0 -80 0 0 40 c0 33 3 40 20 40 19 0 20 7 20 115 l0 115 -26 0 c-23 0 -25
3 -22 43 3 39 5 42 38 48 19 4 50 7 68 8 l32 1 0 -165z m-3860 68 c0 -14 -6
-23 -15 -23 -17 0 -20 -16 -5 -25 6 -3 10 -23 10 -44 0 -55 -30 -88 -85 -97
-62 -9 -56 -21 12 -26 43 -4 61 -10 75 -28 28 -34 23 -86 -10 -120 -66 -66
-232 -42 -232 34 0 20 -4 22 -31 18 -17 -2 -42 1 -55 9 -19 10 -27 10 -36 1
-18 -18 -83 -14 -108 6 -18 14 -24 32 -28 75 -4 52 -2 58 26 87 24 24 39 30
71 30 31 0 41 4 41 16 0 12 -10 15 -47 13 -47 -3 -47 -3 -56 34 -5 21 -6 41
-2 45 4 4 40 7 80 7 103 0 109 -7 113 -138 3 -74 8 -104 18 -110 8 -4 14 -19
14 -33 0 -24 1 -24 24 -8 20 12 23 20 17 37 -5 12 -5 31 -1 42 5 13 2 29 -8
45 -8 13 -15 44 -14 69 0 38 6 50 31 73 26 23 41 28 84 28 28 1 63 7 77 15 28
15 40 6 40 -32z m-2265 -8 c23 -22 25 -31 25 -123 0 -81 3 -101 16 -106 10 -4
14 -16 12 -38 -3 -29 -7 -33 -36 -36 -18 -2 -39 2 -47 8 -10 8 -19 8 -34 1
-25 -14 -77 -14 -101 -1 -28 15 -45 85 -31 132 14 46 44 68 93 68 28 0 38 4
38 16 0 14 -8 16 -44 12 -43 -5 -45 -4 -55 25 -21 59 -16 64 82 66 49 1 62 -3
82 -24z m283 16 c7 0 12 -15 12 -37 0 -27 -13 -52 -60 -115 -33 -44 -60 -84
-60 -90 0 -22 44 -4 50 20 4 18 13 25 34 26 34 1 44 -16 41 -75 l-3 -45 -116
-3 -116 -3 0 39 c0 32 11 53 60 118 33 43 60 82 60 87 0 4 -9 7 -19 7 -13 0
-21 -8 -23 -22 -2 -19 -10 -24 -40 -26 l-38 -3 0 60 c0 48 3 60 17 63 16 3
172 2 201 -1z m212 -4 c32 -16 52 -75 48 -142 l-3 -50 -63 -3 c-53 -3 -63 -6
-60 -20 3 -13 15 -17 53 -18 46 -1 50 -3 62 -33 13 -30 12 -32 -13 -41 -32
-13 -105 -13 -138 0 -37 14 -57 52 -63 118 -8 88 12 159 51 183 36 22 90 24
126 6z m300 -7 c20 -20 21 -28 26 -177 0 -23 6 -49 13 -57 7 -8 11 -27 9 -43
-3 -27 -5 -28 -70 -31 l-68 -3 0 34 c0 18 5 38 12 45 16 16 14 152 -3 163 -27
16 -39 -12 -39 -87 0 -40 5 -76 10 -79 6 -3 10 -22 10 -41 l0 -34 -65 0 -65 0
0 40 c0 22 5 40 10 40 6 0 10 33 10 80 0 47 -4 80 -10 80 -5 0 -10 18 -10 41
l0 41 59 -4 c33 -1 63 0 67 5 16 15 84 7 104 -13z m537 -4 c27 -23 28 -29 31
-125 2 -56 8 -101 13 -101 5 0 9 -18 9 -40 0 -39 -1 -40 -34 -40 -18 0 -39 7
-46 15 -11 13 -15 13 -33 0 -12 -8 -38 -15 -58 -15 -53 0 -79 35 -79 106 0 74
22 96 108 106 39 5 24 23 -21 26 -41 3 -45 6 -55 38 -9 32 -8 36 11 44 12 5
45 9 74 9 41 1 58 -4 80 -23z m1155 -15 c26 -29 28 -37 28 -116 0 -134 -27
-175 -115 -175 -87 0 -125 48 -125 157 0 128 40 178 134 170 40 -4 55 -11 78
-36z m259 10 c16 -19 19 -40 19 -121 0 -80 3 -99 16 -104 10 -4 14 -16 12 -38
-3 -28 -7 -34 -32 -36 -16 -2 -40 2 -53 9 -18 10 -26 10 -35 1 -7 -7 -29 -12
-50 -12 -63 0 -97 51 -85 128 8 50 46 82 98 82 29 0 39 4 39 16 0 13 -9 15
-45 12 -42 -3 -45 -1 -55 26 -21 60 -12 66 89 62 53 -2 67 -6 82 -25z m188 20
c9 -6 22 -6 32 0 34 18 49 1 49 -57 l0 -54 -34 0 c-25 0 -35 5 -39 20 -7 26
-47 27 -47 1 0 -13 16 -25 51 -40 62 -27 87 -72 69 -126 -6 -18 -17 -39 -25
-45 -21 -18 -92 -25 -109 -11 -10 8 -16 9 -21 1 -3 -5 -17 -10 -31 -10 -24 0
-25 2 -22 57 3 53 5 57 31 60 22 3 29 -1 37 -22 7 -19 16 -26 32 -23 42 6 33
35 -19 58 -71 31 -83 46 -83 100 0 25 6 53 13 62 27 34 85 49 116 29z m2506
-5 c17 -12 22 -12 39 0 31 21 90 18 112 -7 14 -16 19 -40 22 -117 2 -53 8
-106 13 -118 6 -12 9 -32 7 -45 -3 -22 -8 -24 -65 -27 l-63 -3 0 41 c0 22 5
40 10 40 11 0 14 118 4 144 -8 21 -41 20 -46 -1 -10 -38 -8 -132 2 -138 5 -3
10 -24 10 -46 l0 -39 -60 0 -60 0 7 120 c6 116 5 120 -14 120 -12 0 -24 -7
-27 -16 -10 -26 -7 -132 4 -139 6 -3 10 -24 10 -46 l0 -39 -65 0 -65 0 0 40
c0 22 5 40 10 40 6 0 10 33 10 79 0 44 -4 83 -10 86 -5 3 -10 22 -10 41 l0 35
64 -3 c36 -1 68 1 72 5 12 12 69 8 89 -7z m-2197 -118 l-3 -43 -62 -3 -63 -3
0 46 0 45 66 0 65 0 -3 -42z"/>
<path d="M7818 11753 c-33 -4 -38 -8 -38 -30 0 -16 7 -27 20 -30 18 -5 20 -14
20 -104 0 -93 -1 -99 -20 -99 -17 0 -19 -4 -14 -27 4 -16 8 -29 9 -31 1 -1 63
1 138 5 l137 6 0 59 0 58 -35 0 c-33 0 -35 -2 -35 -35 l0 -35 -56 0 -55 0 3
38 c3 36 4 37 46 40 40 3 43 5 40 30 -3 24 -8 27 -45 30 -42 3 -43 4 -43 38
l0 35 53 -3 c48 -3 52 -5 55 -30 3 -24 8 -28 33 -28 29 0 29 0 29 60 l0 60
-102 -2 c-57 -1 -120 -3 -140 -5z"/>
<path d="M7542 11730 c-68 -10 -125 -20 -127 -22 -1 -2 0 -27 2 -55 6 -53 6
-53 40 -53 33 0 34 1 28 30 -6 28 -5 30 23 30 29 0 29 -1 40 -82 15 -107 15
-118 -3 -118 -10 0 -15 -10 -15 -31 0 -28 2 -30 28 -25 15 3 48 8 75 12 44 6
47 8 47 35 0 22 -5 29 -19 29 -11 0 -22 8 -25 18 -4 14 -26 163 -26 178 0 2
14 4 30 4 25 0 30 -4 30 -25 0 -21 5 -25 30 -25 26 0 30 3 30 29 0 16 -3 43
-6 60 -8 37 -4 37 -182 11z"/>
<path d="M8217 11744 c-13 -14 -8 -54 8 -54 17 0 19 -37 9 -139 -6 -50 -10
-61 -25 -61 -14 0 -19 -7 -19 -28 l0 -29 135 -12 c75 -6 140 -9 145 -6 6 4 10
31 10 61 l0 55 -32 -3 c-27 -2 -34 -8 -36 -28 -3 -24 -5 -25 -53 -20 -27 3
-49 8 -49 13 0 4 0 20 0 35 0 27 2 29 41 28 38 -1 42 1 46 27 3 26 2 27 -36
27 -45 0 -54 9 -45 45 6 22 11 25 55 25 48 0 49 -1 49 -31 0 -28 2 -30 33 -27
31 3 32 4 35 55 3 49 2 51 -25 57 -53 10 -238 18 -246 10z"/>
<path d="M8667 11693 c-11 -10 -8 -53 3 -53 14 0 12 -34 -9 -119 -14 -58 -22
-76 -39 -82 -14 -5 -22 -17 -22 -31 0 -22 9 -25 131 -52 145 -31 142 -32 153
37 7 43 3 51 -32 62 -19 5 -23 2 -28 -24 -7 -34 -18 -37 -75 -21 l-36 10 21
95 c18 84 23 95 42 95 21 0 34 17 34 45 0 8 -22 18 -52 25 -29 6 -60 14 -69
16 -8 2 -18 1 -22 -3z"/>
<path d="M7148 11661 c-43 -10 -80 -20 -83 -23 -10 -10 14 -58 30 -58 8 0 17
-12 21 -27 3 -16 12 -51 20 -80 18 -66 18 -83 -2 -83 -13 0 -15 -6 -9 -27 4
-16 8 -30 10 -32 2 -2 30 3 62 11 48 11 59 18 61 37 3 16 -2 24 -17 28 -12 3
-21 9 -21 13 0 5 -3 15 -6 23 -9 25 52 33 77 11 11 -10 16 -21 11 -26 -11 -11
-3 -58 9 -58 21 0 115 23 122 30 13 12 -2 50 -20 50 -8 0 -28 9 -44 21 l-29
21 20 25 c11 14 20 36 20 50 0 36 -26 90 -48 102 -29 15 -93 12 -184 -8z m140
-53 c7 -7 12 -24 12 -40 0 -24 -6 -29 -47 -41 l-48 -14 -12 31 c-18 47 -15 64
10 69 44 8 73 7 85 -5z"/>
<path d="M6845 11576 c-48 -18 -102 -77 -111 -121 -20 -109 86 -221 189 -200
127 27 181 134 125 245 -37 73 -123 105 -203 76z m116 -85 c24 -25 29 -38 29
-79 0 -59 -20 -81 -77 -89 -54 -7 -92 25 -100 84 -13 95 83 149 148 84z"/>
<path d="M9016 11474 c-55 -65 -94 -103 -102 -100 -16 6 -32 -41 -18 -53 7 -7
100 -41 110 -41 1 0 5 12 8 27 5 17 3 29 -6 34 -10 6 -10 11 -1 20 16 16 127
-21 131 -44 3 -12 -4 -17 -22 -17 -14 0 -26 -4 -26 -9 0 -5 -2 -16 -5 -23 -4
-10 11 -20 47 -33 29 -10 59 -20 65 -23 18 -6 38 49 21 59 -9 6 -14 49 -16
144 l-4 137 -34 14 c-18 8 -39 14 -46 14 -7 0 -53 -48 -102 -106z m114 -23 l0
-59 -35 11 c-19 6 -35 15 -35 20 0 8 59 83 68 86 1 1 2 -26 2 -58z"/>
<path d="M9351 11451 c-27 -52 -26 -65 4 -79 23 -11 27 -9 37 13 12 28 24 27
86 -4 l33 -17 -102 -44 c-147 -65 -161 -73 -170 -96 -7 -20 4 -27 118 -79 69
-31 128 -53 132 -49 4 5 16 29 26 53 19 42 19 44 0 57 -28 21 -44 17 -51 -11
-8 -31 -26 -31 -83 -1 l-43 23 130 57 c109 48 131 62 137 83 3 14 5 26 3 27
-4 3 -211 97 -225 103 -6 2 -21 -14 -32 -36z"/>
<path d="M6530 11446 c-33 -12 -161 -67 -169 -72 -2 -2 -1 -15 3 -29 5 -18 13
-25 30 -25 20 0 28 -13 59 -87 31 -73 34 -89 22 -95 -11 -7 -12 -14 -3 -33 6
-14 14 -25 18 -25 7 0 120 49 128 55 2 2 0 15 -4 29 -5 21 -11 26 -32 24 -18
-2 -27 2 -30 14 -2 11 15 26 56 48 80 42 100 87 67 150 -30 57 -75 72 -145 46z
m80 -81 c13 -35 5 -48 -45 -73 l-45 -22 -20 40 c-11 21 -20 41 -20 44 0 12 58
35 88 36 26 0 34 -5 42 -25z"/>
<path d="M9642 11325 c-9 -19 -8 -26 3 -32 23 -13 -71 -173 -101 -173 -31 0
-43 -39 -18 -57 23 -17 210 -123 217 -123 7 0 57 86 57 97 0 4 -10 14 -22 22
-20 12 -24 11 -42 -12 l-21 -26 -40 22 c-44 25 -52 43 -30 71 14 19 16 19 51
2 35 -16 37 -16 50 1 19 26 18 31 -18 49 -18 9 -34 18 -36 19 -2 2 4 17 13 35
l16 31 42 -24 c41 -22 46 -34 33 -68 -5 -11 1 -19 20 -28 15 -6 28 -10 29 -9
8 10 55 88 55 92 0 3 -21 17 -47 32 -27 15 -78 44 -115 65 -36 22 -71 39 -76
39 -5 0 -14 -11 -20 -25z"/>
<path d="M6268 11319 c-10 -5 -18 -17 -18 -25 0 -8 -5 -12 -10 -9 -19 12 -79
-16 -111 -52 -26 -31 -30 -42 -25 -72 7 -44 46 -81 86 -81 15 0 53 10 84 21
30 12 62 19 71 16 24 -10 18 -43 -12 -67 -24 -19 -37 -21 -82 -17 -30 3 -63 1
-73 -4 -17 -9 -17 -11 -1 -37 9 -15 22 -37 30 -49 12 -20 16 -21 33 -11 11 7
20 18 20 25 0 7 11 13 25 13 14 0 43 9 64 20 84 42 106 117 52 171 -35 34 -53
36 -123 9 -73 -27 -98 -26 -98 4 0 36 26 51 91 51 32 0 63 5 68 10 6 6 1 25
-16 53 -27 45 -29 47 -55 31z"/>
<path d="M9940 11160 c-8 -15 -8 -25 -1 -34 8 -9 -4 -33 -42 -89 -44 -65 -55
-76 -75 -72 -17 4 -25 -1 -34 -20 -6 -14 -9 -27 -7 -28 2 -2 26 -19 53 -37 46
-31 50 -32 62 -15 8 10 11 28 8 40 -8 32 17 48 44 29 26 -18 31 -74 7 -74 -13
0 -42 -38 -33 -44 47 -37 102 -66 114 -62 19 7 31 39 16 44 -7 2 -12 21 -12
43 0 35 2 39 26 39 40 0 94 59 94 103 0 44 -29 81 -115 141 -82 59 -91 62
-105 36z m118 -119 c35 -32 38 -42 22 -72 -14 -25 -50 -24 -86 3 -16 12 -30
23 -32 24 -7 4 43 74 53 74 6 0 25 -13 43 -29z"/>
<path d="M5910 11096 c-127 -91 -135 -99 -121 -124 8 -16 18 -21 34 -17 18 4
31 -8 74 -72 38 -55 49 -80 42 -89 -10 -12 7 -54 22 -54 6 0 90 59 196 137
l32 23 -31 45 c-34 48 -43 52 -72 30 -18 -14 -18 -15 -2 -40 10 -15 16 -28 14
-29 -2 -1 -20 -16 -42 -31 l-38 -29 -25 28 -25 29 31 24 c33 26 38 42 19 61
-9 9 -20 6 -46 -10 l-35 -21 -18 22 c-11 13 -19 26 -19 30 0 3 18 19 40 34
l40 29 18 -22 c16 -20 21 -21 40 -9 12 8 22 18 22 23 0 16 -52 86 -64 86 -6 0
-45 -25 -86 -54z"/>
<path d="M6049 5414 c-10 -12 -9 -17 7 -29 58 -42 58 -33 3 -119 -48 -74 -50
-81 -33 -93 10 -7 20 -13 23 -13 3 0 29 37 56 81 l51 80 37 -25 c35 -24 37
-24 47 -6 13 24 13 30 -1 30 -6 0 -48 24 -94 54 -72 47 -85 53 -96 40z"/>
<path d="M9855 5375 c-11 -7 -46 -30 -78 -50 -48 -30 -56 -39 -44 -48 18 -15
107 -154 107 -167 0 -13 7 -13 31 0 25 14 24 24 -3 61 -23 30 -23 31 -4 45 26
19 49 18 96 -5 36 -17 40 -17 64 -2 l26 17 -51 22 c-45 19 -49 23 -40 41 36
66 -40 130 -104 86z m53 -37 c21 -21 13 -36 -32 -68 -25 -16 -47 -30 -49 -30
-3 0 -12 11 -20 24 -16 24 -15 25 31 55 54 35 54 35 70 19z"/>
<path d="M6243 5251 c-12 -25 -38 -71 -56 -103 l-34 -56 24 -11 c29 -13 33
-14 33 -2 0 5 23 48 50 96 28 48 50 90 50 94 0 4 -10 12 -22 18 -21 9 -25 6
-45 -36z"/>
<path d="M9567 5204 c-66 -38 -76 -48 -66 -60 18 -22 99 -166 99 -177 0 -11
-2 -11 86 37 38 22 78 51 88 64 23 30 14 67 -23 90 -15 9 -26 23 -23 30 2 7
-3 24 -12 37 -24 37 -60 32 -149 -21z m111 -20 c2 -13 -11 -27 -45 -47 -44
-27 -48 -28 -60 -11 -20 27 -17 32 35 58 53 28 66 28 70 0z m51 -68 c18 -21 4
-41 -47 -69 -47 -25 -48 -26 -60 -7 -18 30 -15 36 31 64 49 29 60 31 76 12z"/>
<path d="M6302 5133 l-52 -103 25 -12 c14 -6 26 -9 28 -7 1 2 10 21 19 41 13
29 21 35 37 31 31 -8 41 -26 43 -81 2 -42 6 -53 26 -61 12 -6 25 -11 27 -11 2
0 1 25 -2 55 l-6 55 31 0 c21 0 36 7 46 22 37 52 13 85 -99 140 l-70 35 -53
-104z m141 17 c80 -50 53 -90 -34 -50 -27 13 -49 25 -49 26 0 10 24 54 30 54
3 0 27 -13 53 -30z"/>
<path d="M9334 5090 c-18 -7 -23 -20 -29 -84 -4 -42 -9 -76 -12 -76 -13 0
-102 77 -103 89 0 9 -6 11 -17 6 -10 -4 -26 -10 -35 -12 -24 -7 -24 -7 17
-107 19 -48 35 -94 35 -103 0 -11 6 -14 23 -9 12 3 25 6 29 6 4 0 -6 30 -22
67 -15 38 -27 70 -24 72 2 2 28 -17 58 -43 30 -25 59 -46 64 -46 6 0 13 32 17
70 4 39 11 72 15 75 4 3 18 -23 31 -58 12 -34 23 -63 24 -65 1 -1 14 2 29 8
22 8 25 13 16 27 -17 30 -70 165 -70 179 0 16 -15 17 -46 4z"/>
<path d="M6584 5078 c-26 -12 -64 -77 -64 -109 0 -59 81 -129 147 -129 35 0
88 31 104 61 17 33 14 91 -6 123 -35 53 -127 81 -181 54z m105 -43 c32 -16 41
-33 41 -75 0 -72 -88 -102 -136 -46 -32 37 -30 71 5 107 33 33 50 35 90 14z"/>
<path d="M6900 4979 c0 -8 8 -64 17 -126 16 -104 19 -112 42 -118 17 -4 27 -1
33 9 11 19 129 158 143 168 5 4 -4 12 -20 18 -22 8 -30 8 -36 -2 -18 -29 -92
-118 -99 -118 -9 0 -30 139 -23 156 3 8 -1 14 -10 14 -9 0 -22 3 -31 6 -10 4
-16 1 -16 -7z"/>
<path d="M8957 4956 c-51 -19 -75 -42 -86 -83 -22 -79 34 -149 117 -147 62 1
105 25 127 70 33 70 0 143 -74 164 -43 12 -37 12 -84 -4z m96 -54 c49 -54 15
-136 -56 -136 -21 0 -45 8 -57 19 -27 25 -27 88 0 115 26 26 90 27 113 2z"/>
<path d="M9496 4961 c-10 -16 5 -41 24 -41 19 0 34 25 24 41 -3 5 -14 9 -24 9
-10 0 -21 -4 -24 -9z"/>
<path d="M7139 4801 c-27 -114 -26 -121 15 -121 11 0 62 193 58 217 -1 4 -12
9 -24 11 -21 2 -25 -5 -49 -107z"/>
<path d="M7245 4776 l-20 -114 26 -4 c25 -4 28 -1 34 39 6 39 9 43 35 43 24 0
33 -7 50 -40 11 -21 20 -46 20 -55 0 -8 9 -15 19 -15 11 0 27 -3 36 -6 14 -6
12 3 -9 44 -30 60 -31 62 -11 62 25 0 55 38 55 70 0 41 -29 57 -131 75 -46 8
-84 15 -84 15 0 0 -9 -51 -20 -114z m171 47 c16 -6 19 -39 4 -48 -6 -4 -35 -3
-65 0 -48 6 -55 10 -55 29 0 13 3 26 7 30 8 7 81 0 109 -11z"/>
<path d="M8660 4872 c-75 -37 -88 -120 -30 -185 26 -29 33 -32 88 -32 58 1 68
5 141 61 2 2 -2 10 -9 19 -11 13 -16 12 -41 -10 -83 -69 -180 -20 -155 80 3
13 21 30 42 40 29 14 44 15 77 6 39 -10 56 -4 57 20 0 24 -124 24 -170 1z"/>
<path d="M7500 4827 c0 -19 6 -22 42 -24 22 -2 42 -4 44 -6 2 -1 -3 -43 -10
-92 -8 -50 -12 -93 -9 -97 2 -5 15 -8 27 -8 21 0 24 6 30 72 11 119 10 118 67
115 l49 -2 0 -82 c0 -79 1 -83 27 -100 19 -12 47 -18 90 -18 91 0 101 13 105
135 3 92 2 95 -19 98 -22 3 -23 1 -23 -81 0 -93 -13 -117 -64 -117 -59 0 -66
12 -66 110 l0 90 -39 0 c-36 0 -156 13 -223 25 -24 4 -28 1 -28 -18z"/>
<path d="M8080 4805 c0 -8 -22 -62 -49 -120 l-50 -105 35 0 c20 0 33 4 29 10
-3 5 -1 19 5 30 9 16 21 20 64 20 51 0 55 -2 65 -31 8 -23 15 -30 27 -25 8 3
22 6 29 6 10 0 -5 38 -43 114 -51 103 -60 114 -84 115 -18 1 -28 -4 -28 -14z
m48 -88 c16 -46 16 -47 -18 -47 -16 0 -30 3 -30 7 0 14 24 73 30 73 3 0 11
-15 18 -33z"/>
<path d="M8261 4803 c0 -10 6 -58 13 -108 7 -49 11 -94 8 -99 -3 -5 14 -7 39
-3 24 3 74 9 112 13 67 7 72 10 61 37 -4 11 -13 13 -42 6 -20 -5 -55 -9 -78
-9 l-41 0 -11 81 c-7 45 -9 85 -6 90 3 5 -9 9 -25 9 -23 0 -31 -5 -30 -17z"/>
<path d="M8526 4661 c-9 -14 4 -41 19 -41 17 0 38 27 30 40 -8 12 -42 13 -49
1z"/>
<path d="M6096 4038 c-16 -62 -3 -138 25 -138 23 0 31 29 27 101 -3 46 -6 54
-24 57 -15 2 -23 -4 -28 -20z"/>
<path d="M9816 4134 c-3 -9 -6 -31 -6 -49 0 -18 3 -40 6 -49 8 -22 41 -20 54
3 23 43 5 111 -29 111 -11 0 -22 -7 -25 -16z"/>
<path d="M9545 4007 c-4 -13 -5 -41 -3 -63 3 -34 6 -39 28 -39 24 0 25 3 25
60 0 54 -2 60 -22 63 -17 2 -24 -3 -28 -21z"/>
<path d="M7264 4056 c-8 -35 1 -56 26 -56 18 0 21 5 18 37 -4 46 -34 59 -44
19z"/>
<path d="M6997 3963 c-4 -3 -7 -19 -7 -35 0 -25 4 -29 23 -26 17 2 23 11 25
36 3 26 0 32 -16 32 -10 0 -22 -3 -25 -7z"/>
<path d="M7253 3834 c-9 -23 22 -45 50 -35 12 5 22 17 22 27 0 26 -62 33 -72
8z"/>
<path d="M5037 3963 c-4 -3 -7 -19 -7 -35 0 -23 4 -28 25 -28 22 0 25 4 25 35
0 27 -4 35 -18 35 -10 0 -22 -3 -25 -7z"/>
<path d="M5562 4058 c-7 -7 -12 -22 -12 -35 0 -19 5 -23 30 -23 23 0 30 5 30
19 0 46 -23 64 -48 39z"/>
<path d="M6365 3951 c-8 -26 4 -51 25 -51 19 0 30 19 30 51 0 26 -46 26 -55 0z"/>
<path d="M7516 4045 c-9 -24 -7 -118 3 -133 5 -8 17 -12 27 -10 17 3 19 13 19
78 0 69 -2 75 -21 78 -13 2 -24 -4 -28 -13z"/>
<path d="M7777 3963 c-4 -3 -7 -19 -7 -35 0 -25 4 -29 23 -26 17 2 23 11 25
36 3 26 0 32 -16 32 -10 0 -22 -3 -25 -7z"/>
<path d="M10039 12007 c-85 -45 -129 -161 -95 -250 43 -114 182 -188 293 -157
83 24 153 116 153 201 0 83 -50 152 -142 199 -78 38 -145 41 -209 7z m179 -68
c55 -27 82 -69 82 -131 0 -36 -6 -54 -26 -78 -68 -80 -160 -80 -228 0 -58 70
-18 193 70 220 44 13 54 12 102 -11z"/>
<path d="M5570 11884 c-19 -8 -57 -32 -85 -52 -27 -21 -76 -55 -108 -77 -69
-47 -74 -53 -54 -68 23 -18 207 -280 207 -294 0 -20 16 -16 59 15 41 28 51 42
29 42 -7 0 -30 25 -52 56 -36 52 -37 56 -21 74 9 10 30 24 47 31 27 11 39 9
100 -12 42 -14 73 -31 77 -41 6 -16 14 -12 65 24 l59 41 -44 12 c-24 6 -69 20
-100 30 l-57 18 19 31 c27 44 25 98 -6 135 -23 27 -37 34 -85 46 -8 2 -31 -3
-50 -11z m60 -84 c35 -35 25 -56 -53 -115 -41 -30 -79 -55 -85 -55 -17 0 -65
68 -57 81 9 13 154 109 166 109 5 0 18 -9 29 -20z"/>
<path d="M10703 11682 c-11 -29 -225 -279 -243 -284 -19 -4 170 -171 226 -198
80 -40 167 -13 234 71 81 103 64 188 -58 296 -42 38 -79 70 -82 73 -3 3 -20
18 -37 34 -32 29 -33 29 -40 8z m134 -184 c62 -64 62 -113 2 -181 -68 -78
-120 -75 -218 12 l-54 48 88 102 87 101 27 -19 c14 -11 45 -39 68 -63z"/>
<path d="M5172 11598 l-42 -32 29 -25 c41 -37 211 -259 211 -277 0 -20 8 -18
56 19 45 33 54 47 30 47 -17 0 -226 264 -226 285 0 22 -12 19 -58 -17z"/>
<path d="M5050 11508 c0 -19 -248 -258 -267 -258 -21 0 -15 -14 22 -50 22 -22
35 -29 35 -19 0 8 22 36 48 62 l48 48 105 -112 c57 -61 105 -118 107 -125 5
-21 15 -17 56 25 34 35 36 40 20 46 -11 4 -66 57 -124 117 l-104 110 49 44
c28 24 56 43 63 44 20 0 14 14 -23 50 -25 24 -35 29 -35 18z"/>
<path d="M11404 10733 c-104 -68 -129 -192 -59 -303 34 -53 69 -87 118 -111
23 -12 49 -28 58 -36 15 -12 18 -11 27 14 5 15 13 36 17 46 6 14 2 17 -20 17
-38 0 -91 35 -126 83 -33 46 -40 118 -15 166 22 41 93 76 139 67 80 -15 154
-118 144 -202 -4 -40 -3 -44 17 -43 27 2 85 16 69 18 -6 0 -14 25 -18 54 -10
71 -36 127 -85 180 -53 58 -94 77 -167 77 -46 0 -67 -6 -99 -27z"/>
<path d="M4275 10554 c-39 -20 -60 -48 -139 -182 -47 -81 -61 -112 -50 -112 9
0 53 -22 98 -49 44 -26 111 -65 148 -85 38 -21 72 -45 77 -54 12 -21 6 -28 85
109 77 135 91 189 69 255 -34 101 -194 167 -288 118z m150 -93 c36 -21 75 -76
75 -107 0 -19 -60 -146 -79 -166 -4 -4 -59 23 -123 60 l-117 68 31 55 c35 63
65 98 93 110 26 11 82 2 120 -20z"/>
<path d="M11868 10341 c-5 -14 -327 -173 -338 -166 -15 9 -12 -1 17 -58 14
-29 28 -46 31 -39 4 13 113 72 132 72 6 0 20 -19 31 -43 l21 -43 -31 -62 c-17
-35 -40 -71 -51 -82 -20 -20 -20 -20 7 -74 l26 -54 43 85 c23 46 45 87 48 90
3 3 19 -6 36 -21 57 -47 143 -27 176 42 21 44 16 61 -63 225 -63 129 -76 150
-85 128z m42 -191 c47 -93 49 -114 15 -136 -23 -15 -27 -15 -50 0 -23 15 -95
141 -95 166 0 9 66 49 82 50 4 0 26 -36 48 -80z"/>
<path d="M3925 9997 c4 -8 -23 -90 -59 -182 -36 -92 -66 -168 -66 -170 0 -2 8
-3 18 -3 22 2 335 -121 344 -136 4 -6 9 -8 12 -6 2 3 32 75 66 160 34 85 68
165 75 177 13 20 12 22 -13 31 -15 6 -36 13 -46 18 -15 6 -18 4 -13 -8 3 -9
-14 -66 -39 -126 -24 -61 -44 -116 -44 -121 0 -6 -5 -11 -12 -11 -20 0 -98 32
-98 40 0 18 61 155 70 158 20 7 9 19 -29 30 -46 14 -54 15 -46 3 4 -8 -48
-158 -59 -169 -3 -2 -78 27 -84 33 -6 5 90 240 99 243 17 7 9 20 -18 30 -16 5
-36 13 -46 17 -13 5 -16 3 -12 -8z"/>
<path d="M11742 9714 c26 -72 27 -73 39 -53 6 13 18 16 46 12 21 -3 40 -7 42
-9 8 -8 61 -146 61 -160 0 -22 -49 -67 -65 -60 -20 7 -19 1 9 -67 25 -63 36
-79 36 -54 0 24 259 307 281 307 17 0 17 3 5 38 -8 20 -19 49 -26 64 -11 24
-14 26 -25 12 -10 -15 -28 -15 -201 -1 -104 8 -197 18 -207 22 -16 7 -15 2 5
-51z m337 -61 c5 -4 -90 -103 -99 -103 -7 0 -48 109 -42 114 5 5 134 -4 141
-11z"/>
<path d="M3779 9495 c-33 -18 -51 -56 -84 -176 -15 -52 -33 -113 -40 -136 -13
-42 -13 -43 8 -43 33 0 336 -87 353 -101 8 -6 16 -10 17 -8 4 4 64 222 80 285
19 79 -18 141 -91 151 -35 5 -49 1 -73 -16 -20 -15 -29 -18 -29 -8 0 23 -45
58 -81 62 -20 3 -45 -1 -60 -10z m72 -85 c25 -14 24 -44 -3 -137 l-22 -75 -34
6 c-20 3 -39 9 -44 14 -12 12 29 168 49 188 17 17 28 18 54 4z m177 -42 c18
-18 15 -64 -10 -146 l-21 -74 -36 7 c-47 9 -71 23 -66 38 2 6 14 46 25 87 12
41 27 81 32 88 13 15 60 16 76 0z"/>
<path d="M12247 9428 c-30 -8 -37 -14 -31 -27 3 -9 12 -42 19 -74 10 -43 10
-60 1 -63 -47 -17 -275 -65 -293 -61 -26 5 -27 5 -12 -63 10 -46 23 -63 31
-40 2 5 64 23 138 40 74 17 142 33 151 36 13 4 20 -9 33 -60 9 -36 13 -71 10
-79 -5 -13 1 -14 38 -5 52 13 53 14 41 30 -6 7 -20 56 -32 108 -12 52 -29 123
-38 158 -8 35 -12 74 -9 87 7 27 7 27 -47 13z"/>
<path d="M3610 8997 c0 -8 -3 -36 -7 -63 -5 -41 -4 -47 8 -38 17 14 271 -17
293 -35 36 -30 31 -143 -8 -188 l-23 -27 -128 13 c-71 7 -137 17 -148 22 -24
13 -23 14 -32 -47 l-6 -51 28 0 c15 1 90 -5 166 -13 133 -13 138 -13 165 6 50
37 75 104 76 207 2 145 -23 166 -224 187 -63 7 -125 19 -137 26 -20 12 -23 12
-23 1z"/>
<path d="M12376 8952 c-3 -5 -32 -13 -63 -16 -32 -4 -114 -14 -182 -22 -103
-13 -125 -13 -132 -2 -12 19 -12 10 12 -174 11 -90 19 -175 16 -190 -4 -31 4
-33 62 -22 22 5 28 10 22 18 -9 11 -46 265 -39 271 2 1 26 6 55 10 l51 7 7
-57 c4 -32 8 -75 9 -96 1 -38 2 -39 38 -39 36 0 57 13 39 24 -4 3 -11 34 -15
68 -4 35 -10 73 -12 84 -5 19 0 22 43 27 26 3 49 4 50 3 7 -7 31 -249 26 -262
-5 -13 2 -15 38 -12 33 2 43 7 40 18 -2 8 -14 93 -27 188 -12 96 -24 176 -27
178 -3 3 -8 1 -11 -4z"/>
<path d="M3878 8350 l3 -140 -88 1 c-48 0 -125 4 -170 7 l-83 7 0 -50 0 -50
73 3 c39 2 128 -1 197 -6 69 -5 126 -8 127 -7 2 1 6 80 9 176 4 96 11 180 17
187 7 9 -2 12 -39 12 l-49 0 3 -140z"/>
<path d="M12438 8471 c-1 -5 -74 -13 -160 -18 -145 -8 -159 -11 -182 -32 -35
-33 -48 -81 -48 -171 0 -97 25 -161 72 -185 26 -14 58 -16 174 -14 78 2 147
-1 154 -5 9 -5 12 9 12 55 0 48 -3 59 -13 51 -6 -6 -71 -14 -144 -18 -131 -7
-131 -7 -156 18 -46 47 -45 172 2 198 10 5 82 11 160 12 l141 3 0 58 c0 53 -4
69 -12 48z"/>
<path d="M12490 8267 c0 -14 14 -31 38 -47 53 -36 54 -36 50 6 -2 22 -6 38
-11 36 -4 -1 -23 4 -42 12 -34 14 -35 14 -35 -7z"/>
<path d="M3840 8000 c-23 -19 -30 -29 -19 -30 9 0 28 -23 44 -51 68 -126 9
-259 -116 -259 -91 0 -153 101 -129 209 7 31 22 64 36 78 l23 23 -40 21 c-23
11 -42 19 -43 17 -1 -2 -12 -32 -24 -68 -27 -78 -29 -183 -6 -238 73 -176 326
-173 384 4 8 22 11 69 8 118 -4 69 -9 88 -36 132 -18 28 -32 56 -32 63 0 18
-13 13 -50 -19z"/>
<path d="M12065 7901 c-25 -56 -29 -79 -30 -153 0 -99 15 -130 77 -161 75 -37
146 19 168 131 21 114 29 132 55 132 62 0 61 -146 -2 -212 -14 -15 -25 -29
-22 -31 14 -11 78 -47 83 -47 4 0 5 4 2 9 -3 5 6 35 20 66 59 127 41 246 -43
286 -40 19 -47 20 -80 8 -51 -20 -70 -52 -93 -157 -22 -107 -25 -112 -50 -112
-66 0 -66 166 0 232 16 15 25 30 22 32 -4 2 -23 13 -42 23 l-36 20 -29 -66z"/>
</g>
</svg>
